<svg width="88" height="88" viewBox="0 0 88 88" fill="none" xmlns="http://www.w3.org/2000/svg">
<rect width="88" height="88" fill="#2C232E"/>
<g clip-path="url(#clip0_99_406)">
<path d="M68.2352 0H19.7648C8.849 0 0 8.849 0 19.7648V68.2352C0 79.151 8.849 88 19.7648 88H68.2352C79.151 88 88 79.151 88 68.2352V19.7648C88 8.849 79.151 0 68.2352 0Z" fill="#2C232E"/>
<path d="M38.0626 55.5602C38.0626 52.1634 35.1058 49.6437 31.709 49.6437H19.876V69.5904H22.6157V61.4738H29.1218L34.7773 69.5816H38.0626L32.2194 61.4533C35.3962 61.2186 38.0626 58.784 38.0626 55.5602ZM31.709 58.96H22.6157V52.1634H31.709C33.5717 52.1634 35.3258 53.4776 35.3258 55.5602C35.3258 57.6429 33.5717 58.96 31.709 58.96Z" fill="#BEAAFF"/>
<path d="M50.0042 52.1634H57.6719V67.0618H50.0042V69.5816H68.1908V67.0618H60.5202V52.1634H68.1908V49.6437H50.0042V52.1634Z" fill="#BEAAFF"/>
<path d="M35.3258 35.8364H34.5573L25.0269 18.4183H19.876V38.3562H22.6157V20.938H23.3842L32.9146 38.3562H38.0626V18.4183H35.3258V35.8364Z" fill="#BEAAFF"/>
<path d="M65.4511 18.4183V30.0314C65.4511 33.8652 62.9314 36.7135 59.0975 36.7135C55.2636 36.7135 52.7439 33.8652 52.7439 30.0314V18.4183H50.0042V30.0314C50.0042 35.2879 53.838 39.2332 59.0975 39.2332C64.357 39.2332 68.1908 35.2879 68.1908 30.0314V18.4183H65.4511Z" fill="#BEAAFF"/>
</g>
<defs>
<clipPath id="clip0_99_406">
<rect width="88" height="88" fill="white"/>
</clipPath>
</defs>
</svg>
